<svg xmlns="http://www.w3.org/2000/svg" viewBox="0 0 93.1664 43.79562">
  <path fill="#9da2ab" d="M34.31268,16.07977a21.61261,21.61261,0,0,0-2.21421-5.22249,22.567,22.567,0,0,0-3.42058-4.42843A21.73815,21.73815,0,0,0,13.19366,0H0V8.76523H13.19366a12.73179,12.73179,0,0,1,5.1156,1.03839,13.36729,13.36729,0,0,1,4.1841,2.825,13.202,13.202,0,0,1,2.80976,4.16884,13.26236,13.26236,0,0,1,0,10.21592,13.06921,13.06921,0,0,1-6.99386,6.99386,12.89557,12.89557,0,0,1-5.1156,1.02312H0v8.76523H13.19366a21.57109,21.57109,0,0,0,5.818-.77879,21.78469,21.78469,0,0,0,9.66619-5.65006,22.56676,22.56676,0,0,0,3.42058-4.42843,21.946,21.946,0,0,0,2.21421-16.85857Z"/>
  <path fill="#9da2ab" d="M59.93662,16.07977a21.61261,21.61261,0,0,0-2.21421-5.22249,22.567,22.567,0,0,0-3.42058-4.42843A21.73815,21.73815,0,0,0,38.81761,0H25.62394V2.51562a22.89362,22.89362,0,0,1,3.69657,3.02026A23.861,23.861,0,0,1,32.006,8.76523h6.81158A12.73177,12.73177,0,0,1,43.9332,9.80362a13.36729,13.36729,0,0,1,4.1841,2.825,13.20184,13.20184,0,0,1,2.80976,4.16884,13.26236,13.26236,0,0,1,0,10.21592,13.06921,13.06921,0,0,1-6.99386,6.99386,12.89556,12.89556,0,0,1-5.11559,1.02312H32.006a23.861,23.861,0,0,1-2.68552,3.22935A22.89362,22.89362,0,0,1,25.62394,41.28v2.51562H38.81761a21.57107,21.57107,0,0,0,5.818-.77879,21.78469,21.78469,0,0,0,9.66619-5.65006,22.56676,22.56676,0,0,0,3.42058-4.42843,21.946,21.946,0,0,0,2.21421-16.85857Z"/>
  <path fill="#ffba49" d="M83.09125,0,72.32814,23.79218,61.83571,0H51.50493V2.7302a22.89065,22.89065,0,0,1,3.47336,2.87174,23.86918,23.86918,0,0,1,3.618,4.68407,22.86056,22.86056,0,0,1,2.342,5.524q.276.99015.45871,2.00772l8.25064,18.215h5.39095l8.52628-19.46608.00752,27.229H93.1664V0Z"/>
  <path fill="#ffba49" d="M60.93836,28.11777a22.86049,22.86049,0,0,1-2.342,5.524,23.86918,23.86918,0,0,1-3.618,4.68407,22.89065,22.89065,0,0,1-3.47336,2.87174v2.59808h9.83078L61.32081,26.512Q61.159,27.32356,60.93836,28.11777Z"/>
</svg>
